<?xml version="1.0" encoding="UTF-8"?> <!-- Generator: Adobe Illustrator 22.1.0, SVG Export Plug-In . SVG Version: 6.00 Build 0) --> <svg xmlns="http://www.w3.org/2000/svg" xmlns:xlink="http://www.w3.org/1999/xlink" x="0px" y="0px" viewBox="0 0 332.5 104.1" style="enable-background:new 0 0 332.5 104.1;" xml:space="preserve"> <style type="text/css"> .st0{fill:none;stroke:#7D4802;stroke-width:2;} .st1{fill:#7D4802;stroke:#7D4802;stroke-width:1.0006;} .st2{fill:#B98545;stroke:#7D4802;stroke-width:1.0006;} .st3{fill:#7D4802;} </style> <g id="Emblem_copy"> <path class="st0" d="M67.8,87.9c4,0,7.3-3.8,7.3-8.4V24.8c0-4.6-3.3-8.4-7.3-8.4H26.3c-4,0-7.3,3.8-7.3,8.4v54.7 c0,4.6,3.3,8.4,7.3,8.4H67.8z"></path> <polygon class="st1" points="62.2,77.2 79,31.9 69.9,28.5 53.2,73.6 "></polygon> <polygon class="st2" points="61.8,76 78.5,30.7 69.4,27.3 52.7,72.5 "></polygon> <polygon class="st1" points="63.2,74.6 49.7,28.4 40.6,31.3 54,77.3 "></polygon> <polygon class="st2" points="63.8,73.5 50.3,27.3 41.2,30.2 54.6,76.2 "></polygon> <polygon class="st1" points="40.7,77.4 54.1,31.3 44.9,28.5 31.4,74.8 "></polygon> <polygon class="st2" points="40.2,76.3 53.6,30.2 44.3,27.4 30.8,73.7 "></polygon> <polygon class="st1" points="40.7,73.7 24,28.5 15,31.9 31.7,77.3 "></polygon> <polygon class="st2" points="41.2,72.5 24.5,27.4 15.4,30.7 32.2,76.2 "></polygon> </g> <g id="FASTIGHETER_semibold"> <g> <path class="st3" d="M91.7,75h7.8v2h-5.3v3.7h5v2h-5v5.7h-2.5V75z"></path> <path class="st3" d="M114.6,84.7l-1.2,3.8h-2.5l4.3-13.5h3.1l4.4,13.5h-2.6l-1.2-3.8H114.6z M118.5,82.8l-1.1-3.3 c-0.3-0.8-0.5-1.7-0.7-2.5h0c-0.2,0.8-0.4,1.7-0.6,2.5l-1,3.3H118.5z"></path> <path class="st3" d="M135,85.8c0.8,0.5,2,0.9,3.3,0.9c1.6,0,2.4-0.7,2.4-1.8c0-1-0.7-1.6-2.4-2.2c-2.2-0.8-3.7-2-3.7-3.9 c0-2.2,1.8-3.9,4.8-3.9c1.5,0,2.5,0.3,3.2,0.7l-0.6,2c-0.5-0.3-1.4-0.6-2.7-0.6c-1.6,0-2.2,0.8-2.2,1.6c0,1,0.8,1.5,2.6,2.2 c2.3,0.9,3.5,2.1,3.5,4c0,2.2-1.6,4-5.1,4c-1.4,0-2.9-0.4-3.7-0.8L135,85.8z"></path> <path class="st3" d="M158.5,77.1h-3.8V75h10.2v2.1h-3.9v11.4h-2.5V77.1z"></path> <path class="st3" d="M179.3,75v13.5h-2.5V75H179.3z"></path> <path class="st3" d="M203.3,87.9c-0.9,0.3-2.5,0.8-4.3,0.8c-2.3,0-4-0.6-5.3-1.8c-1.2-1.1-1.9-2.9-1.9-5c0-4.3,3-7,7.5-7 c1.7,0,3,0.3,3.6,0.6l-0.5,2c-0.7-0.3-1.6-0.6-3.1-0.6c-2.9,0-4.9,1.7-4.9,4.8c0,3.1,1.9,4.9,4.7,4.9c0.9,0,1.5-0.1,1.9-0.3V83 h-2.4v-1.9h4.8V87.9z"></path> <path class="st3" d="M218.8,75v5.4h5.7V75h2.5v13.5h-2.5v-5.9h-5.7v5.9h-2.5V75H218.8z"></path> <path class="st3" d="M247.7,82.5h-5.1v4h5.7v2h-8.1V75h7.8v2h-5.4v3.5h5.1V82.5z"></path> <path class="st3" d="M263.7,77.1h-3.8V75H270v2.1h-3.9v11.4h-2.5V77.1z"></path> <path class="st3" d="M289.6,82.5h-5.1v4h5.7v2h-8.1V75h7.8v2h-5.4v3.5h5.1V82.5z"></path> <path class="st3" d="M302.8,75.2c0.9-0.2,2.3-0.3,3.7-0.3c1.9,0,3.2,0.3,4.2,1.1c0.7,0.6,1.2,1.6,1.2,2.7c0,1.7-1.2,2.9-2.5,3.4 v0.1c1,0.4,1.6,1.3,1.9,2.6c0.4,1.7,0.8,3.2,1.1,3.8h-2.5c-0.2-0.4-0.5-1.5-0.9-3.2c-0.4-1.8-1-2.3-2.4-2.4h-1.2v5.5h-2.4V75.2z M305.2,81.2h1.5c1.7,0,2.7-0.9,2.7-2.2c0-1.5-1-2.2-2.6-2.2c-0.8,0-1.3,0.1-1.5,0.1V81.2z"></path> </g> </g> <g id="Wåhlin"> <g> <path class="st3" d="M110.6,15.7V18c-2,0.2-4,0.4-4,3c0,1.4,0.8,4,1.3,5.5l7.9,24.5l7.4-22.4l-1.4-4.2l-0.5-1.4 c-1.1-3.2-2.4-4.8-5.9-5v-2.2h21.4V18c-2.1,0.1-4.3,0.5-4.3,3.1c0,1.1,0.5,2.3,0.8,3.3l8.8,26.9l8.3-25c0.4-1.2,0.8-2.5,0.8-3.8 c0-3.4-3-4.6-5.9-4.6v-2.2h16.4V18c-3.6,0.8-5.2,0.5-8.8,11.3l-12.2,37.2H136L124.9,34l-10.8,32.5h-4.8L95.8,24.4 c-1.3-4-1.6-5.9-6.3-6.4v-2.2H110.6z"></path> <path class="st3" d="M202.8,37.2c3.7-2.9,6.8-5.3,11.7-5.3c5.2,0,9.6,4.2,9.6,9.4v17.7c0.1,4,2.3,4.4,4.4,4.4v2.1h-18.7v-2.1 c2.4,0,4.3-0.3,4.5-5.6V42.4c0-1-0.9-4.6-5-4.6c-2.3,0-4.5,1.6-6.5,2.6v18.8c0.1,4,2.3,4.4,4.4,4.4v2.1h-18.7v-2.1 c2.5,0,4.3-0.3,4.5-5.6V27.3c-0.1-3.6-0.9-6.1-4.8-6.5v-2.1l14.7-4.2V37.2z"></path> <path class="st3" d="M245.2,14.5v44.6c0,4,2.3,4.4,4.4,4.4v2.1h-18.8v-2.1c2.5,0,4.6-0.3,4.6-5.6V27.3c-0.1-3.6-0.9-6.1-4.8-6.5 v-2.1L245.2,14.5z"></path> <path class="st3" d="M252.5,65.6v-2.1c2.4,0,4.5-0.3,4.5-5.6V44.1c0-3.6-0.9-6.1-4.8-6.5v-2.1l14.7-4.2v27.8 c0.1,4,2.3,4.4,4.4,4.4v2.1H252.5z M261.4,14.5c3.2,0,5.7,2.6,5.7,5.7c0,3.2-2.5,5.7-5.7,5.7c-3.1,0-5.7-2.5-5.7-5.7 C255.6,17.1,258.2,14.5,261.4,14.5z"></path> <path class="st3" d="M287.5,59.1c0,4,2.3,4.4,4.4,4.4v2.1h-18.7v-2.1c2.5,0,4.5-0.3,4.5-5.6V44.1c0-3.6-0.9-6.1-4.8-6.5v-2.1 l14.7-4.2v6.3c3.4-2.5,7.3-5.6,11.7-5.6c6.1,0,9.9,5.5,9.9,9.9v17.2c0.1,4,2.3,4.4,4.4,4.4v2.1h-18.7v-2.1c2.5,0,4.5-0.3,4.5-5.6 V46.5c0-6.8-1.6-8.7-5.5-8.7c-2.5,0-4.8,1.7-6.3,3.6V59.1z"></path> </g> <path class="st3" d="M183.2,57.7c0.1,1.7-0.1,3.8,2.3,3.8c0.5,0,1.2-0.2,1.7-0.4l0.5,1.2c-1.6,2.3-4.7,4.1-7.6,4.1 c-2.9,0-5.3-1.6-6.7-4.1c-3.5,2.7-7,4.1-11.5,4.1c-5.6,0-10-2.6-10-8.6c0-9.5,14.3-12.1,21.6-13.3v-1.8c0-3.3,0.3-8.5-4.5-8.5 c-3.3,0-4.2,2.5-5.1,5.1c-0.8,2.3-2.4,4.8-5,4.8c-2.2,0-4.3-1.6-4.3-4c0-3.3,4-8.2,15.6-8.2c3,0,7.6,0.5,10,2.5 c3.1,2.5,3.1,5.6,3.1,8.7V57.7z M173.4,47.6c-5.5,0.6-11.3,2.9-11.3,9.3c0,3.1,1.6,5.5,4.8,5.5c2.5,0,5-1.9,6.5-3.7V47.6z M169.9,15.2c3.8,0,6.8,3,6.8,6.7c0,3.7-3,6.8-6.8,6.8c-3.8,0-6.7-3-6.7-6.8C163.2,18.2,166.2,15.2,169.9,15.2z M169.9,25.4 c1.9,0,3.5-1.5,3.5-3.5c0-1.9-1.6-3.4-3.5-3.4c-1.9,0-3.5,1.5-3.5,3.4C166.5,23.9,168,25.4,169.9,25.4z"></path> </g> </svg> 